<svg width="12" height="12" viewBox="0 0 12 12" fill="none" xmlns="http://www.w3.org/2000/svg">
<path d="M8.48145 7.45117C8.77434 7.15828 9.2491 7.15828 9.54199 7.45117C9.83472 7.74408 9.83482 8.21888 9.54199 8.51172L6.78809 11.2656L6.73047 11.3174C6.43596 11.5571 6.00196 11.5399 5.72754 11.2656L2.97363 8.51172C2.68076 8.21884 2.68079 7.74407 2.97363 7.45117C3.26653 7.1583 3.74129 7.15829 4.03418 7.45117L6.25781 9.6748L8.48145 7.45117ZM5.78516 0.917969C6.07973 0.678099 6.51364 0.695283 6.78809 0.969727L9.54199 3.72363C9.83478 4.01653 9.83485 4.49132 9.54199 4.78418C9.24913 5.07697 8.77432 5.07694 8.48145 4.78418L6.25781 2.56055L4.03418 4.78418C3.74129 5.07695 3.26649 5.07699 2.97363 4.78418C2.68078 4.49132 2.68085 4.01653 2.97363 3.72363L5.72754 0.969727L5.78516 0.917969Z" fill="currentColor"/>
</svg>
